<?xml version="1.0" encoding="utf-8"?>
<svg version="1.1" id="Ebene_1" xmlns="http://www.w3.org/2000/svg"  x="0px" y="0px"
	 viewBox="0 0 323.6 279.7" style="enable-background:new 0 0 323.6 279.7;" xml:space="preserve">
<style type="text/css">
	.st0{fill:none;}
	.st1{fill:#009CEE;}
	.st2{fill:#CBD900;}
</style>
<rect x="0" y="0" class="st0" width="323.6" height="224.3"/>
<path class="st1" d="M27.5,269.7c0.1,2.8-1.1,5.5-3.3,7.3c-2.2,1.8-5.3,2.7-9.3,2.7c-3.3,0.1-6.7-0.6-9.7-2.1v-6.8
	c1.9,0.9,3.9,1.6,5.9,2.2c1.4,0.4,2.9,0.6,4.4,0.6c1.3,0.1,2.6-0.2,3.7-0.9c0.9-0.6,1.3-1.7,1.3-2.7c0-0.6-0.2-1.3-0.6-1.8
	c-0.5-0.6-1-1.1-1.7-1.5c-1.4-0.9-2.9-1.6-4.4-2.3c-1.7-0.7-3.3-1.7-4.7-2.8c-1-0.9-1.9-2-2.5-3.2c-0.6-1.3-1-2.8-0.9-4.2
	c-0.1-2.7,1-5.4,3.1-7.1c2.1-1.7,4.9-2.6,8.5-2.6c1.7,0,3.4,0.2,5.1,0.6c1.7,0.5,3.4,1.1,5.1,1.8l-2.3,5.6c-1.5-0.6-3-1.2-4.5-1.6
	c-1.2-0.3-2.3-0.4-3.5-0.4c-1.1-0.1-2.3,0.3-3.2,1c-0.7,0.6-1.1,1.5-1.1,2.5c0,0.6,0.1,1.2,0.4,1.7c0.4,0.6,0.9,1,1.4,1.4
	c1.5,0.9,3,1.7,4.6,2.4c3.2,1.5,5.4,3.1,6.6,4.6C27,265.7,27.6,267.7,27.5,269.7z"/>
<path class="st1" d="M43.8,279.7c-8.2,0-12.2-4.5-12.2-13.4c0-4.5,1.1-7.9,3.3-10.2c2.2-2.4,5.4-3.5,9.5-3.5c2.8,0,5.6,0.6,8.2,1.8
	l-2.1,5.5c-1.1-0.5-2.2-0.8-3.1-1.1c-0.9-0.3-1.9-0.4-2.9-0.4c-3.7,0-5.6,2.6-5.6,7.9c0,5.1,1.9,7.7,5.6,7.7c1.3,0,2.6-0.2,3.8-0.6
	c1.2-0.4,2.4-1,3.5-1.7v6.1c-1.1,0.7-2.3,1.2-3.5,1.5C46.8,279.6,45.3,279.7,43.8,279.7z"/>
<path class="st1" d="M82.1,279.2h-7.1v-15.3c0-3.8-1.4-5.7-4.2-5.7c-1.7-0.1-3.4,0.6-4.3,2c-0.9,1.4-1.3,3.6-1.3,6.6v12.3h-7.1
	v-36.5H65v7.4c0,0.6-0.1,1.9-0.2,4.1l-0.2,2.1h0.4c1.6-2.6,4.1-3.8,7.6-3.8c3.1,0,5.4,0.8,7,2.5s2.4,4,2.4,7.1L82.1,279.2z"/>
<path class="st1" d="M108,279.2l-1-3.4h-0.4c-0.8,1.2-1.9,2.2-3.3,2.8c-1.5,0.7-3.1,1-4.8,1c-3.1,0-5.4-0.8-7-2.5
	c-1.6-1.6-2.3-4-2.3-7.1V253h7.1v15.3c-0.1,1.5,0.2,3,1,4.3c0.8,1,2,1.5,3.2,1.4c1.7,0.1,3.3-0.6,4.3-2c0.9-1.3,1.3-3.6,1.3-6.6V253
	h7.1v26.2H108z"/>
<path class="st1" d="M128.1,279.2H121v-36.5h7.1V279.2z"/>
<path class="st1" d="M146.3,279.7c-3.7,0-6.6-1.1-8.6-3.4s-3.1-5.5-3.1-9.7c0-4.3,1-7.6,3.1-10s5-3.5,8.8-3.5c1.2,0,2.5,0.1,3.7,0.4
	c1,0.2,2,0.5,2.9,0.9l-1.2,3.3c-0.9-0.4-1.9-0.6-2.8-0.9c-0.9-0.2-1.8-0.3-2.7-0.3c-5.2,0-7.8,3.3-7.8,10c0,3.2,0.6,5.6,1.9,7.3
	c1.4,1.7,3.5,2.7,5.7,2.5c2.3,0,4.5-0.5,6.6-1.4v3.4C150.7,279.3,148.5,279.8,146.3,279.7z"/>
<path class="st1" d="M176.4,279.2v-16.6c0.1-1.7-0.4-3.4-1.4-4.7c-1.2-1.1-2.8-1.7-4.5-1.5c-2.7,0-4.7,0.7-5.9,2.2
	c-1.2,1.5-1.9,3.9-1.9,7.2v13.4h-3.9v-36.5h3.9v11c0,1.1,0,2.2-0.2,3.3h0.2c0.8-1.3,1.9-2.3,3.3-2.9c1.5-0.7,3.2-1.1,4.8-1.1
	c3.1,0,5.5,0.7,7.1,2.2c1.6,1.5,2.4,3.9,2.4,7.1v16.8L176.4,279.2z"/>
<path class="st1" d="M204.1,279.2l-0.8-3.7h-0.2c-1,1.4-2.3,2.5-3.8,3.3c-1.5,0.6-3.1,0.9-4.8,0.9c-2.2,0.1-4.3-0.6-6-2
	c-1.5-1.5-2.3-3.5-2.2-5.6c0-5.2,4.1-7.9,12.4-8.2l4.4-0.1v-1.6c0.1-1.6-0.3-3.2-1.3-4.5c-1.1-1.1-2.6-1.6-4.2-1.4
	c-2.5,0.1-5,0.8-7.3,2l-1.2-3c1.3-0.7,2.7-1.3,4.2-1.6c1.5-0.4,3-0.6,4.5-0.6c3.1,0,5.3,0.7,6.8,2s2.2,3.5,2.2,6.5v17.5L204.1,279.2
	z M195.3,276.5c2.1,0.1,4.1-0.6,5.7-2c1.4-1.5,2.2-3.5,2.1-5.6v-2.3l-3.9,0.2c-3.1,0.1-5.3,0.6-6.7,1.4c-1.4,0.8-2.2,2.4-2.1,4
	c-0.1,1.2,0.4,2.4,1.3,3.2C192.7,276.2,194,276.6,195.3,276.5L195.3,276.5z"/>
<path class="st1" d="M223.3,276.5c0.7,0,1.3,0,2-0.2c0.5-0.1,1-0.2,1.5-0.3v3c-0.6,0.3-1.2,0.4-1.9,0.5c-0.7,0.1-1.5,0.2-2.2,0.2
	c-5,0-7.5-2.6-7.5-7.9v-15.3h-3.7v-1.9l3.7-1.6l1.6-5.5h2.2v6h7.5v3h-7.5v15.1c-0.1,1.3,0.3,2.6,1.1,3.6
	C221,276.1,222.1,276.6,223.3,276.5z"/>
<path class="st1" d="M249.3,265l-3,14.2h-4l7.2-34.3h7.5c7,0,10.5,2.9,10.5,8.6c0,5.4-2.9,8.9-8.6,10.5l5.6,15.2h-4.4l-4.9-14.2
	H249.3z M252.8,248.5c-1.6,7.7-2.5,12.1-2.7,13.1h3.9c3,0,5.3-0.7,7-2c1.7-1.4,2.6-3.5,2.4-5.7c0.1-1.5-0.4-3.1-1.6-4.1
	c-1.1-0.9-2.8-1.3-5.1-1.3L252.8,248.5z"/>
<path class="st1" d="M269.6,279.2l7.2-34.3h4l-6.5,30.7h13.2l-0.8,3.6H269.6z"/>
<path class="st1" d="M317.5,253.8c0,3.9-1.3,6.8-3.8,8.9c-2.6,2-6.3,3.1-11.3,3.1h-3.2l-2.9,13.5h-4l7.2-34.3h7.7
	c3.3,0,5.9,0.7,7.6,2.2C316.6,248.7,317.5,250.9,317.5,253.8z M300,262.3h3.1c3.4,0,5.9-0.7,7.7-2.1c1.8-1.6,2.8-3.9,2.6-6.3
	c0.1-1.6-0.5-3.2-1.6-4.2c-1.5-1-3.2-1.4-5-1.3h-3.8L300,262.3z"/>
<path class="st2" d="M322.4,80.2L251.1,1.6c-0.8-0.9-2-1.5-3.2-1.6H84c-1.2,0-3.4,0.4-4.2,1.2L1.2,79.8C0,81.1-0.4,83,0.4,84.6
	c0.7,1.6,2.3,2.7,4.1,2.8h71.5c0.1-13.7,0.2-24,0.2-24.8c0.1-4.3,1.8-8.5,4.8-11.6c3.4-3.4,8.2-5.2,14.2-5.2h0.1l138.3,0
	c0.1,0,0.1,0,0.2,0c6.3,0.3,18.5,4.4,19.4,17.6c0.2,3.6,0.4,12.6,0.5,23.9h65.9c1.8-0.1,3.3-1.2,4-2.8
	C323.6,83.4,323.6,81.4,322.4,80.2z"/>
<path class="st2" d="M154.1,176.1c0.6,0,63.9,1.6,79,1.8c0.1,0,0.1,0,0.2,0c10.5,0,12-11.4,12.2-13.3c0-4.4,0.1-87.9-0.7-100.4
	c-0.6-8.7-9.9-9.7-11.3-9.8l-138.2,0c0,0-0.1,0-0.1,0c-4.5,0-7.6,1.3-9.3,4c-0.8,1.3-1.3,2.9-1.4,4.4c0,1-0.7,88.7-0.7,101.2
	c0,8.2,7.1,10.5,8.8,11l12.5,0.6c2.3,0.1,4.1,2.1,4,4.4c0,0.1,0,0.3,0,0.4l-6.7,44.5l48.7-47.6C151.9,176.5,153,176.1,154.1,176.1z"
	/>
</svg>
