<svg xmlns="http://www.w3.org/2000/svg" viewBox="0 0 367.4611 367.4611"><defs><style>.a{fill:none;}.b{fill:#cbd900;}</style></defs><rect class="a" width="367.4611" height="367.4611"/><rect class="a" x="21.6222" y="78.0454" width="323.5774" height="224.3465"/><path class="b" d="M343.9842,158.2266,272.7117,79.6649a4.9985,4.9985,0,0,0-3.2356-1.62H105.6543c-1.2149,0-3.43.4049-4.24,1.2149L22.8528,157.8217a4.3068,4.3068,0,0,0-.81,4.8595,4.876,4.876,0,0,0,4.05,2.8347H97.5716c.102-13.7425.1786-23.9893.1844-24.75a17.207,17.207,0,0,1,4.7627-11.62c3.4-3.4482,8.1928-5.1963,14.2441-5.1963h.1392l138.2959.0435c.0654,0,.1308.0014.1963.0049,6.3261.2988,18.5136,4.37,19.3593,17.6342.2289,3.5891.3858,12.6185.4932,23.8838H341.15a4.8709,4.8709,0,0,0,4.05-2.8347C345.1991,161.4662,345.1991,159.4415,343.9842,158.2266Z"/><path class="b" d="M175.7078,254.1606c.6372.0166,63.9013,1.6474,79.0361,1.8086.0517,0,.1055.001.1572.001,10.5371,0,12.0156-11.3863,12.1885-13.2671.0059-4.3863.1016-87.9434-.6943-100.4185-.5557-8.7183-9.8672-9.7-11.33-9.8L116.89,132.4409c-.0435,0-.086,0-.1289,0-4.5088,0-7.6324,1.3364-9.2857,3.9731a9.4071,9.4071,0,0,0-1.3511,4.4307c-.0063.95-.6625,88.7412-.7348,101.2344-.0479,8.2246,7.084,10.5273,8.7773,10.958l12.4908.623a4.1856,4.1856,0,0,1,3.9311,4.8l-6.6519,44.46,48.7388-47.57A4.13,4.13,0,0,1,175.7078,254.1606Z"/></svg>